<svg width="198.275" height="217.603" viewBox="0 0 52.46 57.574" version="1.1" id="svg5" xmlns="http://www.w3.org/2000/svg"><defs id="defs2"><clipPath clipPathUnits="userSpaceOnUse" id="clipPath11056"><path id="lpe_path-effect11060" style="fill:#fff;stroke:#fff;stroke-width:10.169px;stroke-linecap:square;stroke-dasharray:none;stroke-opacity:1" class="powerclip" d="M60.246 86.331h60.39V150.8h-60.39Zm.705 40.734v16.463h60.832v-16.463z"/></clipPath></defs><g id="layer1" transform="translate(-74.802 -109.925)"><g id="g4147" transform="translate(11.589 11.589)"><g id="g11857"><g id="g10986" clip-path="url('#clipPath11056')" transform="matrix(1 0 0 .77186 .036 27.84)"><g id="path665"><path style="color:#000;fill:#ff0;stroke-width:10.133px;stroke-linecap:square;-inkscape-stroke:none" d="M70.313 134.143v-30.507" id="path11082"/><path style="color:#000;fill:#ffdd97;stroke-linecap:square;-inkscape-stroke:none" d="M65.246 98.57v40.641H75.38V98.57z" id="path11084"/></g><path style="color:#000;fill:#c47c77;stroke-linecap:square;-inkscape-stroke:none" d="M74.924 94.658V138.22h9.965V94.658z" id="path665-4"/><path style="color:#000;fill:#9ab9c5;stroke-linecap:square;-inkscape-stroke:none" d="M84.654 91.332v46.813h10.383V91.332z" id="path665-6"/><path style="color:#000;fill:#99ceb7;stroke-linecap:square;-inkscape-stroke:none" d="M94.967 92.225V137.166h10.972V92.225z" id="path665-8"/><path id="path665-40" style="color:#000;fill:#a698c4;stroke-linecap:square;-inkscape-stroke:none" d="M105.772 98.064v43.733c.482-.336.966-.67 1.453-1 1.035-.618 2.02-1.41 3.181-1.788.177-.058.361-.091.542-.137.14-.01.282-.044.422-.048a.838.838 0 0 1 .14.007c.27.041.565.08.784.245 1.206.9 1.134 2.911 1.015 4.457.2-.025.402-.057.602-.064.574-.056 1.15-.125 1.726-.16V98.063zm5.764 42.747c-.04 0-.09.018-.128.015-1.144.232-2.07 1.065-3.057 1.634-.32.216-.637.434-.954.653.57-.099 1.144-.183 1.721-.235.556-.017 1.11-.004 1.665.04.182.013.367.026.55.044.022-.394.025-.76-.005-1.411-.01-.203-.102-.406-.067-.606.02-.113.38-.005.328-.107-.01-.02-.03-.027-.054-.027z"/></g><g aria-label="GROUP" id="text289" style="-inkscape-font-specification:&quot;Avenir Medium&quot;;stroke-width:.264583px;font-family:Avenir;font-size:24.6944px;font-weight:500"><path d="M65.22 112.414q0-1.062.37-1.877t.988-1.358q.592-.519 1.333-.79.766-.272 1.531-.272.766 0 1.506.272.766.271 1.383.79.593.543.963 1.358.37.815.37 1.877v.889h-2.518v-.89q0-.913-.519-1.333-.493-.444-1.185-.444-.691 0-1.21.444-.494.42-.494 1.334v9.285q0 .913.494 1.358.519.42 1.21.42.692 0 1.185-.42.519-.445.519-1.358v-3.31h-2v-2.222h4.519v5.532q0 1.111-.37 1.901-.371.79-.964 1.31-.617.542-1.383.814-.74.272-1.506.272-.765 0-1.53-.272-.742-.272-1.334-.815-.618-.519-.988-1.309-.37-.79-.37-1.901z" style="-inkscape-font-specification:&quot;DIN Condensed, &quot;" id="path6362"/><path d="M78.406 110.636v5.482h1.432q.667 0 1.062-.173.395-.198.618-.543.197-.346.271-.84.074-.518.074-1.185t-.074-1.16q-.074-.52-.296-.89-.47-.691-1.778-.691zm-2.519 15.211v-17.582h4.05q4.445 0 4.445 5.161 0 1.556-.494 2.642-.469 1.087-1.679 1.754l2.716 8.025h-2.667l-2.345-7.507h-1.507v7.507z" style="-inkscape-font-specification:&quot;DIN Condensed, &quot;" id="path6364"/><path d="M86.259 112.414q0-1.062.37-1.877t.988-1.358q.593-.519 1.334-.79.765-.272 1.53-.272.766 0 1.507.272.766.271 1.383.79.593.543.963 1.358.37.815.37 1.877v9.285q0 1.111-.37 1.901t-.963 1.31q-.617.542-1.383.814-.74.272-1.506.272t-1.531-.272q-.741-.272-1.334-.815-.617-.519-.988-1.309-.37-.79-.37-1.901zm2.519 9.285q0 .913.494 1.358.518.42 1.21.42.691 0 1.185-.42.519-.445.519-1.358v-9.285q0-.914-.519-1.334-.494-.444-1.185-.444-.692 0-1.21.444-.494.42-.494 1.334z" style="-inkscape-font-specification:&quot;DIN Condensed, &quot;" id="path6366"/><path d="M105.076 108.265v13.631q0 .865-.321 1.605-.296.717-.864 1.285-.568.568-1.31.889-.74.32-1.58.32-.84 0-1.58-.32-.716-.321-1.284-.89-.568-.567-.89-1.284-.32-.74-.32-1.605v-13.631h2.519v13.384q0 .939.444 1.383.445.445 1.111.445.667 0 1.112-.445.444-.444.444-1.383v-13.384z" style="-inkscape-font-specification:&quot;DIN Condensed, &quot;" id="path6368"/><path d="M107.447 125.847v-17.582h3.778q1.037 0 1.827.272.79.271 1.433.963.642.691.889 1.63.247.913.247 2.494 0 1.185-.149 2-.123.815-.568 1.531-.518.864-1.383 1.358-.864.47-2.271.47h-1.285v6.864zm2.518-15.211v5.976h1.21q.766 0 1.186-.223.42-.222.617-.617.198-.37.222-.914.05-.543.05-1.21 0-.617-.025-1.16-.025-.568-.222-.988-.198-.42-.593-.642-.395-.222-1.136-.222z" style="-inkscape-font-specification:&quot;DIN Condensed, &quot;" id="path6370"/></g><g aria-label="5" transform="scale(1.90551 .5248)" id="text453" style="-inkscape-font-specification:&quot;DIN Condensed, &quot;;stroke-width:.47117px;font-family:DIN Condensed;font-size:90.4648px"><path d="M60.675 232.134v8.685H42.401v17.369q1.267-1.267 3.257-2.08 1.99-.906 4.433-.906 4.704 0 7.599 2.895 2.985 2.805 2.985 8.504v16.646q0 3.256-1.176 5.79-1.086 2.532-2.985 4.342-1.9 1.809-4.433 2.804-2.443.905-5.157.905t-5.247-.905q-2.442-.995-4.342-2.804-1.9-1.81-3.076-4.343-1.085-2.533-1.085-5.79v-2.713H42.4v2.352q0 2.352 1.267 3.709 1.357 1.266 3.437 1.266 2.081 0 3.167-1.266 1.176-1.267 1.176-3.528v-15.108q0-1.9-1.267-3.257-1.176-1.357-3.076-1.357-1.176 0-1.99.453-.814.361-1.357.904t-.814 1.176q-.452.814-.543.995H34.26v-34.738z" id="path6373"/></g></g></g></g></svg>