<?xml version="1.0" encoding="UTF-8" standalone="no"?>
<!-- Created with Inkscape (http://www.inkscape.org/) -->

<svg
   width="52.460152mm"
   height="57.574043mm"
   viewBox="0 0 52.460152 57.574043"
   version="1.1"
   id="svg5"
   inkscape:version="1.2.2 (b0a84865, 2022-12-01)"
   sodipodi:docname="group5.svg"
   inkscape:dataloss="true"
   xmlns:inkscape="http://www.inkscape.org/namespaces/inkscape"
   xmlns:sodipodi="http://sodipodi.sourceforge.net/DTD/sodipodi-0.dtd"
   xmlns="http://www.w3.org/2000/svg"
   xmlns:svg="http://www.w3.org/2000/svg">
  <sodipodi:namedview
     id="namedview7"
     pagecolor="#ffffff"
     bordercolor="#000000"
     borderopacity="0.25"
     inkscape:showpageshadow="2"
     inkscape:pageopacity="0.0"
     inkscape:pagecheckerboard="0"
     inkscape:deskcolor="#d1d1d1"
     inkscape:document-units="mm"
     showgrid="false"
     showguides="false"
     inkscape:zoom="1.3108355"
     inkscape:cx="453.90899"
     inkscape:cy="600.38046"
     inkscape:window-width="1440"
     inkscape:window-height="900"
     inkscape:window-x="0"
     inkscape:window-y="0"
     inkscape:window-maximized="0"
     inkscape:current-layer="layer1" />
  <defs
     id="defs2">
    <clipPath
       clipPathUnits="userSpaceOnUse"
       id="clipPath11056">
      <path
         id="lpe_path-effect11060"
         style="fill:#ffffff;stroke:#ffffff;stroke-width:10.169;stroke-linecap:square;stroke-dasharray:none;stroke-opacity:1"
         class="powerclip"
         d="M 60.246485,86.331119 H 120.63595 V 150.79945 H 60.246485 Z m 0.704923,40.734161 v 16.46244 H 121.7832 v -16.46244 z" />
    </clipPath>
  </defs>
  <g
     inkscape:label="Warstwa 1"
     inkscape:groupmode="layer"
     id="layer1"
     transform="translate(-74.801889,-109.92466)">
    <g
       id="g4147"
       transform="translate(11.588965,11.588965)"
       inkscape:export-filename="group5logo.svg"
       inkscape:export-xdpi="96"
       inkscape:export-ydpi="96">
      <g
         id="g11857">
        <g
           id="g10986"
           clip-path="url(#clipPath11056)"
           transform="matrix(1,0,0,0.77186283,0.0363517,27.839891)">
          <g
             id="path665">
            <path
               style="color:#000000;fill:#ffff00;stroke-width:10.133;stroke-linecap:square;-inkscape-stroke:none"
               d="m 70.312985,134.14349 c 0,-30.61354 0,-30.50761 0,-30.50761"
               id="path11082" />
            <path
               style="color:#000000;fill:#ffdd97;stroke-linecap:square;-inkscape-stroke:none"
               d="m 65.246094,98.570312 v 5.066408 30.50586 5.06836 h 10.132812 v -5.06836 -30.50586 -5.066408 z"
               id="path11084" />
          </g>
          <path
             style="color:#000000;fill:#c47c77;stroke-linecap:square;-inkscape-stroke:none"
             d="m 74.923828,94.658203 v 4.982422 33.595705 4.98242 h 9.964844 v -4.98242 -33.595705 -4.982422 z"
             id="path665-4" />
          <path
             style="color:#000000;fill:#9ab9c5;stroke-linecap:square;-inkscape-stroke:none"
             d="m 84.654297,91.332031 v 5.191406 36.429683 5.19141 h 10.382812 v -5.19141 -36.429683 -5.191406 z"
             id="path665-6" />
          <path
             style="color:#000000;fill:#99ceb7;stroke-linecap:square;-inkscape-stroke:none"
             d="m 94.966797,92.224609 v 5.486328 33.968753 5.48633 h 10.972653 v -5.48633 -33.968753 -5.486328 z"
             id="path665-8" />
          <path
             id="path665-40"
             style="color:#000000;fill:#a698c4;stroke-linecap:square;-inkscape-stroke:none"
             d="m 105.77169,98.064451 v 4.933549 37.86901 0.93017 c 0.48264,-0.33599 0.96652,-0.67037 1.45366,-0.99994 1.03456,-0.61785 2.01979,-1.41007 3.18068,-1.78852 0.17707,-0.0577 0.36098,-0.0908 0.54157,-0.13642 0.14043,-0.0101 0.282,-0.0438 0.4222,-0.0481 0.0467,-10e-4 0.0931,2.3e-4 0.13952,0.007 0.27088,0.0409 0.56551,0.0805 0.78497,0.24443 1.20597,0.90103 1.13344,2.91147 1.01492,4.45709 0.20058,-0.0244 0.40169,-0.0565 0.60203,-0.0636 0.57367,-0.0558 1.14917,-0.12518 1.72548,-0.16071 v -2.4414 -37.86901 -4.933549 z m 5.76399,42.746749 c -0.0394,1.7e-4 -0.0903,0.0175 -0.12816,0.015 -1.14359,0.23146 -2.06968,1.06476 -3.05666,1.63401 -0.31924,0.2159 -0.63697,0.4341 -0.95395,0.65319 0.57093,-0.099 1.14415,-0.18309 1.72135,-0.23513 0.55571,-0.0174 1.10995,-0.004 1.66449,0.0398 0.18256,0.0134 0.36708,0.0263 0.55087,0.0439 0.0217,-0.39378 0.0242,-0.75961 -0.006,-1.41128 -0.009,-0.20277 -0.10126,-0.40563 -0.0667,-0.60565 0.0196,-0.11353 0.37983,-0.005 0.32763,-0.10749 -0.0103,-0.0203 -0.0296,-0.0265 -0.0532,-0.0263 z" />
        </g>
        <g
           aria-label="GROUP
"
           id="text289"
           style="font-weight:500;font-size:24.6944px;font-family:Avenir;-inkscape-font-specification:'Avenir Medium';stroke-width:0.264583">
          <path
             d="m 65.21937,112.4137 q 0,-1.06186 0.370416,-1.87678 0.370416,-0.81491 0.987776,-1.35819 0.592666,-0.51858 1.333498,-0.79022 0.765526,-0.27164 1.531053,-0.27164 0.765526,0 1.506358,0.27164 0.765526,0.27164 1.382886,0.79022 0.592666,0.54328 0.963082,1.35819 0.370416,0.81492 0.370416,1.87678 v 0.88899 h -2.518829 v -0.88899 q 0,-0.9137 -0.518582,-1.3335 -0.493888,-0.4445 -1.185331,-0.4445 -0.691444,0 -1.210026,0.4445 -0.493888,0.4198 -0.493888,1.3335 v 9.28509 q 0,0.91369 0.493888,1.35819 0.518582,0.41981 1.210026,0.41981 0.691443,0 1.185331,-0.41981 0.518582,-0.4445 0.518582,-1.35819 v -3.30905 H 69.14578 v -2.22249 h 4.519075 v 5.53154 q 0,1.11125 -0.370416,1.90147 -0.370416,0.79022 -0.963082,1.3088 -0.61736,0.54328 -1.382886,0.81492 -0.740832,0.27164 -1.506358,0.27164 -0.765527,0 -1.531053,-0.27164 -0.740832,-0.27164 -1.333498,-0.81492 -0.61736,-0.51858 -0.987776,-1.3088 -0.370416,-0.79022 -0.370416,-1.90147 z"
             style="-inkscape-font-specification:'DIN Condensed, '"
             id="path6362" />
          <path
             d="m 78.406147,110.6357 v 5.48216 h 1.432276 q 0.666748,0 1.061859,-0.17286 0.39511,-0.19756 0.61736,-0.54328 0.197555,-0.34572 0.271638,-0.83961 0.07408,-0.51858 0.07408,-1.18533 0,-0.66675 -0.07408,-1.16064 -0.07408,-0.51858 -0.296333,-0.889 -0.469193,-0.69144 -1.777996,-0.69144 z m -2.518828,15.21175 V 108.26504 H 79.9372 q 4.444992,0 4.444992,5.16113 0,1.55574 -0.493888,2.6423 -0.469193,1.08655 -1.679219,1.7533 l 2.716384,8.02568 h -2.666995 l -2.345968,-7.5071 h -1.506359 v 7.5071 z"
             style="-inkscape-font-specification:'DIN Condensed, '"
             id="path6364" />
          <path
             d="m 86.258934,112.4137 q 0,-1.06186 0.370416,-1.87678 0.370416,-0.81491 0.987776,-1.35819 0.592666,-0.51858 1.333498,-0.79022 0.765526,-0.27164 1.531053,-0.27164 0.765526,0 1.506358,0.27164 0.765527,0.27164 1.382887,0.79022 0.592665,0.54328 0.963081,1.35819 0.370416,0.81492 0.370416,1.87678 v 9.28509 q 0,1.11125 -0.370416,1.90147 -0.370416,0.79022 -0.963081,1.3088 -0.61736,0.54328 -1.382887,0.81492 -0.740832,0.27164 -1.506358,0.27164 -0.765527,0 -1.531053,-0.27164 -0.740832,-0.27164 -1.333498,-0.81492 -0.61736,-0.51858 -0.987776,-1.3088 -0.370416,-0.79022 -0.370416,-1.90147 z m 2.518829,9.28509 q 0,0.91369 0.493888,1.35819 0.518582,0.41981 1.210026,0.41981 0.691443,0 1.185331,-0.41981 0.518582,-0.4445 0.518582,-1.35819 v -9.28509 q 0,-0.9137 -0.518582,-1.3335 -0.493888,-0.4445 -1.185331,-0.4445 -0.691444,0 -1.210026,0.4445 -0.493888,0.4198 -0.493888,1.3335 z"
             style="-inkscape-font-specification:'DIN Condensed, '"
             id="path6366" />
          <path
             d="m 105.07603,108.26504 v 13.63131 q 0,0.8643 -0.32102,1.60513 -0.29634,0.71614 -0.86431,1.28411 -0.56797,0.56797 -1.3088,0.889 -0.74083,0.32103 -1.58044,0.32103 -0.83961,0 -1.580444,-0.32103 -0.716137,-0.32103 -1.284109,-0.889 -0.567971,-0.56797 -0.888998,-1.28411 -0.321027,-0.74083 -0.321027,-1.60513 v -13.63131 h 2.518829 v 13.38436 q 0,0.93839 0.444499,1.38289 0.4445,0.4445 1.11125,0.4445 0.66675,0 1.11125,-0.4445 0.4445,-0.4445 0.4445,-1.38289 v -13.38436 z"
             style="-inkscape-font-specification:'DIN Condensed, '"
             id="path6368" />
          <path
             d="m 107.44666,125.84745 v -17.58241 h 3.77825 q 1.03716,0 1.82738,0.27164 0.79022,0.27163 1.43228,0.96308 0.64205,0.69144 0.889,1.62983 0.24694,0.91369 0.24694,2.49413 0,1.18533 -0.14817,2.00025 -0.12347,0.81491 -0.56797,1.53105 -0.51858,0.86431 -1.38288,1.35819 -0.86431,0.4692 -2.27189,0.4692 h -1.28411 v 6.86504 z m 2.51883,-15.21175 v 5.97604 h 1.21003 q 0.76553,0 1.18533,-0.22225 0.41981,-0.22224 0.61736,-0.61736 0.19756,-0.37041 0.22225,-0.91369 0.0494,-0.54327 0.0494,-1.21002 0,-0.61736 -0.0247,-1.16064 -0.0247,-0.56797 -0.22225,-0.98778 -0.19755,-0.4198 -0.59266,-0.64205 -0.39511,-0.22225 -1.13594,-0.22225 z"
             style="-inkscape-font-specification:'DIN Condensed, '"
             id="path6370" />
        </g>
        <g
           aria-label="5"
           transform="scale(1.9055105,0.52479374)"
           id="text453"
           style="font-size:90.4648px;font-family:'DIN Condensed';-inkscape-font-specification:'DIN Condensed, ';stroke-width:0.47117">
          <path
             d="m 60.675044,232.13389 v 8.68462 H 42.401155 v 17.36925 q 1.266507,-1.26651 3.256733,-2.08069 1.990225,-0.90465 4.432775,-0.90465 4.704169,0 7.599043,2.89487 2.985338,2.80441 2.985338,8.50369 v 16.64553 q 0,3.25673 -1.176042,5.78974 -1.085578,2.53302 -2.985339,4.34231 -1.89976,1.8093 -4.432775,2.80441 -2.442549,0.90465 -5.156493,0.90465 -2.713944,0 -5.246959,-0.90465 -2.442549,-0.99511 -4.34231,-2.80441 -1.899761,-1.80929 -3.075803,-4.34231 -1.085578,-2.53301 -1.085578,-5.78974 v -2.71395 h 9.22741 v 2.35209 q 0,2.35208 1.266507,3.70905 1.356972,1.26651 3.437662,1.26651 2.080691,0 3.166268,-1.26651 1.176043,-1.2665 1.176043,-3.52812 v -15.10763 q 0,-1.89976 -1.266507,-3.25673 -1.176043,-1.35697 -3.075804,-1.35697 -1.176042,0 -1.990225,0.45232 -0.814183,0.36186 -1.356972,0.90465 -0.542789,0.54279 -0.814183,1.17604 -0.452324,0.81419 -0.542789,0.99512 h -8.141832 v -34.73849 z"
             id="path6373" />
        </g>
      </g>
    </g>
  </g>
</svg>
